<svg width="1200" height="360" viewBox="0 0 1200 360" fill="none" xmlns="http://www.w3.org/2000/svg">
  <defs>
    <linearGradient id="bar" x1="280" y1="0" x2="1090" y2="0">
      <stop stop-color="#F59E8B"/>
      <stop offset="0.5" stop-color="#C084FC"/>
      <stop offset="1" stop-color="#60A5FA"/>
    </linearGradient>
  </defs>

  <rect width="1200" height="360" rx="28" fill="#0D1117"/>
  <rect x="1" y="1" width="1198" height="358" rx="27" stroke="#30363D"/>

  <text x="58" y="62" fill="#F0F6FC" font-family="Inter,Segoe UI,Arial,sans-serif" font-size="26" font-weight="700">Research Radar</text>
  <text x="58" y="92" fill="#8B949E" font-family="Inter,Segoe UI,Arial,sans-serif" font-size="15">Areas I’m actively exploring, testing and building toward</text>

  <g font-family="JetBrains Mono,monospace" font-size="16" fill="#C9D1D9">
    <text x="58" y="150">RL environments</text>
    <text x="58" y="196">Synthetic data</text>
    <text x="58" y="242">AI evaluation</text>
    <text x="58" y="288">Agent systems</text>
    <text x="58" y="334">Multimodal AI</text>
  </g>

  <g>
    <rect x="285" y="136" width="830" height="11" rx="5.5" fill="#21262D"/>
    <rect x="285" y="136" width="760" height="11" rx="5.5" fill="url(#bar)"><animate attributeName="width" values="0;760" dur="1.2s" fill="freeze"/></rect>
    <rect x="285" y="182" width="830" height="11" rx="5.5" fill="#21262D"/>
    <rect x="285" y="182" width="700" height="11" rx="5.5" fill="url(#bar)"><animate attributeName="width" values="0;700" dur="1.4s" fill="freeze"/></rect>
    <rect x="285" y="228" width="830" height="11" rx="5.5" fill="#21262D"/>
    <rect x="285" y="228" width="655" height="11" rx="5.5" fill="url(#bar)"><animate attributeName="width" values="0;655" dur="1.6s" fill="freeze"/></rect>
    <rect x="285" y="274" width="830" height="11" rx="5.5" fill="#21262D"/>
    <rect x="285" y="274" width="615" height="11" rx="5.5" fill="url(#bar)"><animate attributeName="width" values="0;615" dur="1.8s" fill="freeze"/></rect>
    <rect x="285" y="320" width="830" height="11" rx="5.5" fill="#21262D"/>
    <rect x="285" y="320" width="565" height="11" rx="5.5" fill="url(#bar)"><animate attributeName="width" values="0;565" dur="2s" fill="freeze"/></rect>
  </g>
</svg>